<mxfile host="app.diagrams.net" modified="2023-08-21T13:50:19.754Z" agent="Mozilla/5.0 (Windows NT 10.0; Win64; x64) AppleWebKit/537.36 (KHTML, like Gecko) Chrome/116.0.0.0 Safari/537.36" etag="KwiZA00dh0novehP0HJ0" version="21.6.8" type="device">
  <diagram name="페이지-1" id="FXdm9EhiizhV5ZvjEC0G">
    <mxGraphModel dx="1685" dy="1209" grid="0" gridSize="10" guides="1" tooltips="1" connect="1" arrows="1" fold="1" page="0" pageScale="1" pageWidth="827" pageHeight="1169" math="0" shadow="0">
      <root>
        <mxCell id="0" />
        <mxCell id="1" parent="0" />
        <mxCell id="F0JioWCo4Qzg_TsHQdJf-38" value="" style="rounded=0;whiteSpace=wrap;html=1;" parent="1" vertex="1">
          <mxGeometry x="11" y="520" width="794" height="1050" as="geometry" />
        </mxCell>
        <mxCell id="-Qgl4ysdJtrphELewiQ6-1" value="" style="rounded=0;whiteSpace=wrap;html=1;" parent="1" vertex="1">
          <mxGeometry x="10" y="-100" width="796" height="540" as="geometry" />
        </mxCell>
        <object label="User" id="-Qgl4ysdJtrphELewiQ6-2">
          <mxCell style="shape=umlActor;verticalLabelPosition=bottom;verticalAlign=top;html=1;outlineConnect=0;" parent="1" vertex="1">
            <mxGeometry x="-90" y="-24.660000000000004" width="30" height="60" as="geometry" />
          </mxCell>
        </object>
        <mxCell id="-Qgl4ysdJtrphELewiQ6-11" style="edgeStyle=orthogonalEdgeStyle;rounded=0;orthogonalLoop=1;jettySize=auto;html=1;exitX=0.5;exitY=1;exitDx=0;exitDy=0;" parent="1" source="-Qgl4ysdJtrphELewiQ6-4" target="-Qgl4ysdJtrphELewiQ6-6" edge="1">
          <mxGeometry relative="1" as="geometry">
            <mxPoint x="317" y="119.99999999999989" as="sourcePoint" />
          </mxGeometry>
        </mxCell>
        <mxCell id="-Qgl4ysdJtrphELewiQ6-4" value="회원가입 페이지로 이동한다." style="ellipse;whiteSpace=wrap;html=1;fontSize=11;" parent="1" vertex="1">
          <mxGeometry x="237" y="-12.44" width="160" height="35.56" as="geometry" />
        </mxCell>
        <mxCell id="F0JioWCo4Qzg_TsHQdJf-168" style="edgeStyle=orthogonalEdgeStyle;rounded=0;orthogonalLoop=1;jettySize=auto;html=1;exitX=0.5;exitY=1;exitDx=0;exitDy=0;" parent="1" source="-Qgl4ysdJtrphELewiQ6-5" target="-Qgl4ysdJtrphELewiQ6-13" edge="1">
          <mxGeometry relative="1" as="geometry" />
        </mxCell>
        <mxCell id="-Qgl4ysdJtrphELewiQ6-5" value="회원정보를 입력한다." style="ellipse;whiteSpace=wrap;html=1;fontSize=11;" parent="1" vertex="1">
          <mxGeometry x="247" y="90" width="140" height="33.33" as="geometry" />
        </mxCell>
        <mxCell id="-Qgl4ysdJtrphELewiQ6-12" style="edgeStyle=orthogonalEdgeStyle;rounded=0;orthogonalLoop=1;jettySize=auto;html=1;exitX=0.5;exitY=1;exitDx=0;exitDy=0;" parent="1" source="-Qgl4ysdJtrphELewiQ6-6" target="-Qgl4ysdJtrphELewiQ6-5" edge="1">
          <mxGeometry relative="1" as="geometry" />
        </mxCell>
        <mxCell id="-Qgl4ysdJtrphELewiQ6-6" value="약관에 동의한다." style="ellipse;whiteSpace=wrap;html=1;fontSize=11;" parent="1" vertex="1">
          <mxGeometry x="257" y="40" width="120" height="33.34" as="geometry" />
        </mxCell>
        <mxCell id="-Qgl4ysdJtrphELewiQ6-7" value="Member" style="shape=umlActor;verticalLabelPosition=bottom;verticalAlign=top;html=1;outlineConnect=0;fillColor=#f8cecc;strokeColor=#b85450;" parent="1" vertex="1">
          <mxGeometry x="-80" y="210" width="30" height="60" as="geometry" />
        </mxCell>
        <mxCell id="-Qgl4ysdJtrphELewiQ6-10" value="" style="endArrow=classic;html=1;rounded=0;entryX=0;entryY=0.5;entryDx=0;entryDy=0;" parent="1" target="F0JioWCo4Qzg_TsHQdJf-143" edge="1">
          <mxGeometry width="50" height="50" relative="1" as="geometry">
            <mxPoint x="-50" y="5" as="sourcePoint" />
            <mxPoint x="150" y="-101" as="targetPoint" />
          </mxGeometry>
        </mxCell>
        <mxCell id="-Qgl4ysdJtrphELewiQ6-19" style="edgeStyle=orthogonalEdgeStyle;rounded=0;orthogonalLoop=1;jettySize=auto;html=1;exitX=0.5;exitY=1;exitDx=0;exitDy=0;" parent="1" source="-Qgl4ysdJtrphELewiQ6-13" target="-Qgl4ysdJtrphELewiQ6-17" edge="1">
          <mxGeometry relative="1" as="geometry" />
        </mxCell>
        <mxCell id="-Qgl4ysdJtrphELewiQ6-13" value="로그인 페이지로 이동한다." style="ellipse;whiteSpace=wrap;html=1;fontSize=11;" parent="1" vertex="1">
          <mxGeometry x="247" y="150" width="140" height="33.33" as="geometry" />
        </mxCell>
        <mxCell id="-Qgl4ysdJtrphELewiQ6-16" value="" style="endArrow=classic;html=1;rounded=0;entryX=0;entryY=0.5;entryDx=0;entryDy=0;exitX=1;exitY=0.5;exitDx=0;exitDy=0;" parent="1" source="F0JioWCo4Qzg_TsHQdJf-145" target="-Qgl4ysdJtrphELewiQ6-13" edge="1">
          <mxGeometry width="50" height="50" relative="1" as="geometry">
            <mxPoint x="152" y="148.56" as="sourcePoint" />
            <mxPoint x="517" y="197.56" as="targetPoint" />
          </mxGeometry>
        </mxCell>
        <mxCell id="-Qgl4ysdJtrphELewiQ6-17" value="로그인 정보를 입력한다." style="ellipse;whiteSpace=wrap;html=1;fontSize=11;" parent="1" vertex="1">
          <mxGeometry x="247" y="210" width="140" height="33.33" as="geometry" />
        </mxCell>
        <mxCell id="-Qgl4ysdJtrphELewiQ6-20" value="&lt;span style=&quot;font-size: 15px;&quot;&gt;회원 관리&lt;/span&gt;" style="text;html=1;align=center;verticalAlign=middle;resizable=0;points=[];autosize=1;strokeColor=none;fillColor=none;fontSize=14;fontStyle=1" parent="1" vertex="1">
          <mxGeometry x="367" y="-130" width="90" height="30" as="geometry" />
        </mxCell>
        <mxCell id="-Qgl4ysdJtrphELewiQ6-35" value="administrator" style="shape=umlActor;verticalLabelPosition=bottom;verticalAlign=top;html=1;outlineConnect=0;" parent="1" vertex="1">
          <mxGeometry x="904" y="306" width="30" height="60" as="geometry" />
        </mxCell>
        <mxCell id="-Qgl4ysdJtrphELewiQ6-37" value="회원관리" style="ellipse;whiteSpace=wrap;html=1;fontSize=11;fillColor=#e1d5e7;strokeColor=#9673a6;" parent="1" vertex="1">
          <mxGeometry x="648" y="317" width="100" height="35.56" as="geometry" />
        </mxCell>
        <mxCell id="-Qgl4ysdJtrphELewiQ6-52" value="" style="endArrow=classic;html=1;rounded=0;entryX=1;entryY=0.5;entryDx=0;entryDy=0;" parent="1" source="-Qgl4ysdJtrphELewiQ6-35" target="-Qgl4ysdJtrphELewiQ6-37" edge="1">
          <mxGeometry width="50" height="50" relative="1" as="geometry">
            <mxPoint x="356" y="226.88" as="sourcePoint" />
            <mxPoint x="406" y="176.88" as="targetPoint" />
          </mxGeometry>
        </mxCell>
        <mxCell id="F0JioWCo4Qzg_TsHQdJf-15" value="커뮤니티" style="ellipse;whiteSpace=wrap;html=1;fontSize=11;fillColor=#f8cecc;strokeColor=#b85450;" parent="1" vertex="1">
          <mxGeometry x="70" y="651" width="89.51" height="39" as="geometry" />
        </mxCell>
        <mxCell id="F0JioWCo4Qzg_TsHQdJf-16" value="" style="endArrow=classic;html=1;rounded=0;entryX=0;entryY=0.5;entryDx=0;entryDy=0;" parent="1" target="F0JioWCo4Qzg_TsHQdJf-15" edge="1">
          <mxGeometry width="50" height="50" relative="1" as="geometry">
            <mxPoint x="-34" y="1040" as="sourcePoint" />
            <mxPoint x="56" y="537.3299999999999" as="targetPoint" />
          </mxGeometry>
        </mxCell>
        <mxCell id="F0JioWCo4Qzg_TsHQdJf-17" value="글쓰기 페이지로 이동한다." style="ellipse;whiteSpace=wrap;html=1;fontSize=11;" parent="1" vertex="1">
          <mxGeometry x="331" y="634" width="160" height="33.33" as="geometry" />
        </mxCell>
        <mxCell id="F0JioWCo4Qzg_TsHQdJf-18" value="상세 글보기로 이동한다." style="ellipse;whiteSpace=wrap;html=1;fontSize=11;" parent="1" vertex="1">
          <mxGeometry x="331" y="585" width="160" height="33.33" as="geometry" />
        </mxCell>
        <mxCell id="F0JioWCo4Qzg_TsHQdJf-19" value="본인이 작성한 글을 수정한다." style="ellipse;whiteSpace=wrap;html=1;fontSize=11;" parent="1" vertex="1">
          <mxGeometry x="331" y="683" width="160" height="33.33" as="geometry" />
        </mxCell>
        <mxCell id="F0JioWCo4Qzg_TsHQdJf-20" value="본인이 작성한 글을 삭제한다." style="ellipse;whiteSpace=wrap;html=1;fontSize=11;" parent="1" vertex="1">
          <mxGeometry x="331" y="735" width="160" height="33.33" as="geometry" />
        </mxCell>
        <mxCell id="F0JioWCo4Qzg_TsHQdJf-21" value="" style="endArrow=classic;html=1;rounded=0;entryX=0;entryY=0.5;entryDx=0;entryDy=0;exitX=1;exitY=0.5;exitDx=0;exitDy=0;dashed=1;" parent="1" source="F0JioWCo4Qzg_TsHQdJf-15" target="F0JioWCo4Qzg_TsHQdJf-18" edge="1">
          <mxGeometry width="50" height="50" relative="1" as="geometry">
            <mxPoint x="221" y="676" as="sourcePoint" />
            <mxPoint x="451" y="605" as="targetPoint" />
          </mxGeometry>
        </mxCell>
        <mxCell id="F0JioWCo4Qzg_TsHQdJf-22" value="" style="endArrow=classic;html=1;rounded=0;entryX=0;entryY=0.5;entryDx=0;entryDy=0;exitX=1;exitY=0.5;exitDx=0;exitDy=0;dashed=1;" parent="1" source="F0JioWCo4Qzg_TsHQdJf-15" target="F0JioWCo4Qzg_TsHQdJf-17" edge="1">
          <mxGeometry width="50" height="50" relative="1" as="geometry">
            <mxPoint x="291" y="675" as="sourcePoint" />
            <mxPoint x="451" y="605" as="targetPoint" />
          </mxGeometry>
        </mxCell>
        <mxCell id="F0JioWCo4Qzg_TsHQdJf-23" value="" style="endArrow=classic;html=1;rounded=0;exitX=1;exitY=0.5;exitDx=0;exitDy=0;entryX=0;entryY=0.5;entryDx=0;entryDy=0;dashed=1;" parent="1" source="F0JioWCo4Qzg_TsHQdJf-15" target="F0JioWCo4Qzg_TsHQdJf-19" edge="1">
          <mxGeometry width="50" height="50" relative="1" as="geometry">
            <mxPoint x="291" y="675.5" as="sourcePoint" />
            <mxPoint x="451" y="605" as="targetPoint" />
          </mxGeometry>
        </mxCell>
        <mxCell id="F0JioWCo4Qzg_TsHQdJf-24" value="" style="endArrow=classic;html=1;rounded=0;entryX=0;entryY=0.5;entryDx=0;entryDy=0;exitX=1;exitY=0.5;exitDx=0;exitDy=0;dashed=1;" parent="1" source="F0JioWCo4Qzg_TsHQdJf-15" target="F0JioWCo4Qzg_TsHQdJf-20" edge="1">
          <mxGeometry width="50" height="50" relative="1" as="geometry">
            <mxPoint x="291" y="675" as="sourcePoint" />
            <mxPoint x="451" y="605" as="targetPoint" />
          </mxGeometry>
        </mxCell>
        <mxCell id="F0JioWCo4Qzg_TsHQdJf-25" value="&amp;lt;&amp;lt;extend&amp;gt;&amp;gt;" style="text;html=1;strokeColor=none;fillColor=none;align=center;verticalAlign=middle;whiteSpace=wrap;rounded=0;rotation=-30;" parent="1" vertex="1">
          <mxGeometry x="220" y="604" width="60" height="30" as="geometry" />
        </mxCell>
        <mxCell id="F0JioWCo4Qzg_TsHQdJf-26" value="커뮤니티 관리" style="ellipse;whiteSpace=wrap;html=1;fontSize=11;fillColor=#e1d5e7;strokeColor=#9673a6;" parent="1" vertex="1">
          <mxGeometry x="610" y="657.49" width="100" height="35.56" as="geometry" />
        </mxCell>
        <mxCell id="F0JioWCo4Qzg_TsHQdJf-27" value="" style="endArrow=classic;html=1;rounded=0;exitX=0;exitY=0.5;exitDx=0;exitDy=0;entryX=1;entryY=0.5;entryDx=0;entryDy=0;dashed=1;" parent="1" source="F0JioWCo4Qzg_TsHQdJf-26" target="F0JioWCo4Qzg_TsHQdJf-18" edge="1">
          <mxGeometry width="50" height="50" relative="1" as="geometry">
            <mxPoint x="326" y="655" as="sourcePoint" />
            <mxPoint x="376" y="605" as="targetPoint" />
          </mxGeometry>
        </mxCell>
        <mxCell id="F0JioWCo4Qzg_TsHQdJf-28" value="" style="endArrow=classic;html=1;rounded=0;entryX=1;entryY=0.5;entryDx=0;entryDy=0;exitX=0;exitY=0.5;exitDx=0;exitDy=0;dashed=1;" parent="1" source="F0JioWCo4Qzg_TsHQdJf-26" target="F0JioWCo4Qzg_TsHQdJf-17" edge="1">
          <mxGeometry width="50" height="50" relative="1" as="geometry">
            <mxPoint x="446" y="673" as="sourcePoint" />
            <mxPoint x="376" y="605" as="targetPoint" />
          </mxGeometry>
        </mxCell>
        <mxCell id="F0JioWCo4Qzg_TsHQdJf-29" value="" style="endArrow=classic;html=1;rounded=0;exitX=0;exitY=0.5;exitDx=0;exitDy=0;entryX=1;entryY=0.5;entryDx=0;entryDy=0;dashed=1;" parent="1" source="F0JioWCo4Qzg_TsHQdJf-26" target="F0JioWCo4Qzg_TsHQdJf-19" edge="1">
          <mxGeometry width="50" height="50" relative="1" as="geometry">
            <mxPoint x="326" y="655" as="sourcePoint" />
            <mxPoint x="376" y="605" as="targetPoint" />
          </mxGeometry>
        </mxCell>
        <mxCell id="F0JioWCo4Qzg_TsHQdJf-30" value="" style="endArrow=classic;html=1;rounded=0;exitX=0;exitY=0.5;exitDx=0;exitDy=0;entryX=1;entryY=0.5;entryDx=0;entryDy=0;dashed=1;" parent="1" source="F0JioWCo4Qzg_TsHQdJf-26" target="F0JioWCo4Qzg_TsHQdJf-20" edge="1">
          <mxGeometry width="50" height="50" relative="1" as="geometry">
            <mxPoint x="326" y="655" as="sourcePoint" />
            <mxPoint x="376" y="605" as="targetPoint" />
          </mxGeometry>
        </mxCell>
        <mxCell id="F0JioWCo4Qzg_TsHQdJf-31" value="&amp;lt;&amp;lt;include&amp;gt;&amp;gt;" style="text;html=1;strokeColor=none;fillColor=none;align=center;verticalAlign=middle;whiteSpace=wrap;rounded=0;rotation=36;" parent="1" vertex="1">
          <mxGeometry x="534" y="618" width="60" height="30" as="geometry" />
        </mxCell>
        <mxCell id="F0JioWCo4Qzg_TsHQdJf-32" value="&amp;lt;&amp;lt;extend&amp;gt;&amp;gt;" style="text;html=1;strokeColor=none;fillColor=none;align=center;verticalAlign=middle;whiteSpace=wrap;rounded=0;rotation=-10;" parent="1" vertex="1">
          <mxGeometry x="237" y="634.3299999999999" width="60" height="30" as="geometry" />
        </mxCell>
        <mxCell id="F0JioWCo4Qzg_TsHQdJf-33" value="&amp;lt;&amp;lt;extend&amp;gt;&amp;gt;" style="text;html=1;strokeColor=none;fillColor=none;align=center;verticalAlign=middle;whiteSpace=wrap;rounded=0;rotation=10;" parent="1" vertex="1">
          <mxGeometry x="238" y="666.3299999999999" width="60" height="30" as="geometry" />
        </mxCell>
        <mxCell id="F0JioWCo4Qzg_TsHQdJf-34" value="&amp;lt;&amp;lt;extend&amp;gt;&amp;gt;" style="text;html=1;strokeColor=none;fillColor=none;align=center;verticalAlign=middle;whiteSpace=wrap;rounded=0;rotation=25;" parent="1" vertex="1">
          <mxGeometry x="260" y="705" width="60" height="30" as="geometry" />
        </mxCell>
        <mxCell id="F0JioWCo4Qzg_TsHQdJf-35" value="&amp;lt;&amp;lt;include&amp;gt;&amp;gt;" style="text;html=1;strokeColor=none;fillColor=none;align=center;verticalAlign=middle;whiteSpace=wrap;rounded=0;rotation=15;" parent="1" vertex="1">
          <mxGeometry x="508.9999999999999" y="641.75" width="72.65" height="23.15" as="geometry" />
        </mxCell>
        <mxCell id="F0JioWCo4Qzg_TsHQdJf-36" value="&amp;lt;&amp;lt;include&amp;gt;&amp;gt;" style="text;html=1;strokeColor=none;fillColor=none;align=center;verticalAlign=middle;whiteSpace=wrap;rounded=0;rotation=-10;" parent="1" vertex="1">
          <mxGeometry x="509.9999999999999" y="669.9000000000001" width="72.65" height="23.15" as="geometry" />
        </mxCell>
        <mxCell id="F0JioWCo4Qzg_TsHQdJf-37" value="&amp;lt;&amp;lt;include&amp;gt;&amp;gt;" style="text;html=1;strokeColor=none;fillColor=none;align=center;verticalAlign=middle;whiteSpace=wrap;rounded=0;rotation=-30;" parent="1" vertex="1">
          <mxGeometry x="507.9999999999999" y="701.75" width="72.65" height="23.15" as="geometry" />
        </mxCell>
        <mxCell id="F0JioWCo4Qzg_TsHQdJf-39" value="&lt;span style=&quot;font-size: 15px;&quot;&gt;게시판&lt;/span&gt;" style="text;html=1;align=center;verticalAlign=middle;resizable=0;points=[];autosize=1;strokeColor=none;fillColor=none;fontSize=14;fontStyle=1" parent="1" vertex="1">
          <mxGeometry x="376" y="490" width="70" height="30" as="geometry" />
        </mxCell>
        <mxCell id="F0JioWCo4Qzg_TsHQdJf-40" value="Member" style="shape=umlActor;verticalLabelPosition=bottom;verticalAlign=top;html=1;outlineConnect=0;fillColor=#f8cecc;strokeColor=#b85450;" parent="1" vertex="1">
          <mxGeometry x="-74" y="1030" width="30" height="60" as="geometry" />
        </mxCell>
        <mxCell id="F0JioWCo4Qzg_TsHQdJf-42" value="administrator" style="shape=umlActor;verticalLabelPosition=bottom;verticalAlign=top;html=1;outlineConnect=0;" parent="1" vertex="1">
          <mxGeometry x="880" y="1030" width="30" height="60" as="geometry" />
        </mxCell>
        <mxCell id="F0JioWCo4Qzg_TsHQdJf-43" value="FAQ" style="ellipse;whiteSpace=wrap;html=1;fontSize=11;fillColor=#f8cecc;strokeColor=#b85450;" parent="1" vertex="1">
          <mxGeometry x="78" y="910" width="91.8" height="40" as="geometry" />
        </mxCell>
        <mxCell id="F0JioWCo4Qzg_TsHQdJf-44" value="글쓰기 페이지로 이동한다." style="ellipse;whiteSpace=wrap;html=1;fontSize=11;" parent="1" vertex="1">
          <mxGeometry x="333" y="899" width="160" height="33.33" as="geometry" />
        </mxCell>
        <mxCell id="F0JioWCo4Qzg_TsHQdJf-45" value="FAQ 목록으로 이동한다." style="ellipse;whiteSpace=wrap;html=1;fontSize=11;" parent="1" vertex="1">
          <mxGeometry x="333" y="850" width="160" height="33.33" as="geometry" />
        </mxCell>
        <mxCell id="F0JioWCo4Qzg_TsHQdJf-46" value="해당 글의 내용을 수정한다." style="ellipse;whiteSpace=wrap;html=1;fontSize=11;" parent="1" vertex="1">
          <mxGeometry x="333" y="948" width="160" height="33.33" as="geometry" />
        </mxCell>
        <mxCell id="F0JioWCo4Qzg_TsHQdJf-47" value="해당 글의 내용을 삭제한다." style="ellipse;whiteSpace=wrap;html=1;fontSize=11;" parent="1" vertex="1">
          <mxGeometry x="333" y="1000" width="160" height="33.33" as="geometry" />
        </mxCell>
        <mxCell id="F0JioWCo4Qzg_TsHQdJf-48" value="" style="endArrow=classic;html=1;rounded=0;entryX=0;entryY=0.5;entryDx=0;entryDy=0;exitX=1;exitY=0.5;exitDx=0;exitDy=0;dashed=1;" parent="1" source="F0JioWCo4Qzg_TsHQdJf-43" target="F0JioWCo4Qzg_TsHQdJf-45" edge="1">
          <mxGeometry width="50" height="50" relative="1" as="geometry">
            <mxPoint x="223" y="941" as="sourcePoint" />
            <mxPoint x="453" y="870" as="targetPoint" />
          </mxGeometry>
        </mxCell>
        <mxCell id="F0JioWCo4Qzg_TsHQdJf-52" value="&amp;lt;&amp;lt;extend&amp;gt;&amp;gt;" style="text;html=1;strokeColor=none;fillColor=none;align=center;verticalAlign=middle;whiteSpace=wrap;rounded=0;rotation=-20;" parent="1" vertex="1">
          <mxGeometry x="210" y="877.75" width="60" height="30" as="geometry" />
        </mxCell>
        <mxCell id="F0JioWCo4Qzg_TsHQdJf-53" value="FAQ 관리" style="ellipse;whiteSpace=wrap;html=1;fontSize=11;fillColor=#e1d5e7;strokeColor=#9673a6;" parent="1" vertex="1">
          <mxGeometry x="610" y="922.72" width="100" height="35.56" as="geometry" />
        </mxCell>
        <mxCell id="F0JioWCo4Qzg_TsHQdJf-54" value="" style="endArrow=classic;html=1;rounded=0;exitX=0;exitY=0.5;exitDx=0;exitDy=0;entryX=1;entryY=0.5;entryDx=0;entryDy=0;dashed=1;" parent="1" source="F0JioWCo4Qzg_TsHQdJf-53" target="F0JioWCo4Qzg_TsHQdJf-45" edge="1">
          <mxGeometry width="50" height="50" relative="1" as="geometry">
            <mxPoint x="328" y="920" as="sourcePoint" />
            <mxPoint x="378" y="870" as="targetPoint" />
          </mxGeometry>
        </mxCell>
        <mxCell id="F0JioWCo4Qzg_TsHQdJf-55" value="" style="endArrow=classic;html=1;rounded=0;entryX=1;entryY=0.5;entryDx=0;entryDy=0;exitX=0;exitY=0.5;exitDx=0;exitDy=0;dashed=1;" parent="1" source="F0JioWCo4Qzg_TsHQdJf-53" target="F0JioWCo4Qzg_TsHQdJf-44" edge="1">
          <mxGeometry width="50" height="50" relative="1" as="geometry">
            <mxPoint x="448" y="938" as="sourcePoint" />
            <mxPoint x="378" y="870" as="targetPoint" />
          </mxGeometry>
        </mxCell>
        <mxCell id="F0JioWCo4Qzg_TsHQdJf-56" value="" style="endArrow=classic;html=1;rounded=0;exitX=0;exitY=0.5;exitDx=0;exitDy=0;entryX=1;entryY=0.5;entryDx=0;entryDy=0;dashed=1;" parent="1" source="F0JioWCo4Qzg_TsHQdJf-53" target="F0JioWCo4Qzg_TsHQdJf-46" edge="1">
          <mxGeometry width="50" height="50" relative="1" as="geometry">
            <mxPoint x="328" y="920" as="sourcePoint" />
            <mxPoint x="378" y="870" as="targetPoint" />
          </mxGeometry>
        </mxCell>
        <mxCell id="F0JioWCo4Qzg_TsHQdJf-57" value="" style="endArrow=classic;html=1;rounded=0;exitX=0;exitY=0.5;exitDx=0;exitDy=0;entryX=1;entryY=0.5;entryDx=0;entryDy=0;dashed=1;" parent="1" source="F0JioWCo4Qzg_TsHQdJf-53" target="F0JioWCo4Qzg_TsHQdJf-47" edge="1">
          <mxGeometry width="50" height="50" relative="1" as="geometry">
            <mxPoint x="328" y="920" as="sourcePoint" />
            <mxPoint x="378" y="870" as="targetPoint" />
          </mxGeometry>
        </mxCell>
        <mxCell id="F0JioWCo4Qzg_TsHQdJf-58" value="&amp;lt;&amp;lt;include&amp;gt;&amp;gt;" style="text;html=1;strokeColor=none;fillColor=none;align=center;verticalAlign=middle;whiteSpace=wrap;rounded=0;rotation=36;" parent="1" vertex="1">
          <mxGeometry x="522" y="878" width="60" height="30" as="geometry" />
        </mxCell>
        <mxCell id="F0JioWCo4Qzg_TsHQdJf-62" value="&amp;lt;&amp;lt;include&amp;gt;&amp;gt;" style="text;html=1;strokeColor=none;fillColor=none;align=center;verticalAlign=middle;whiteSpace=wrap;rounded=0;rotation=15;" parent="1" vertex="1">
          <mxGeometry x="511.9999999999999" y="907.75" width="72.65" height="23.15" as="geometry" />
        </mxCell>
        <mxCell id="F0JioWCo4Qzg_TsHQdJf-63" value="&amp;lt;&amp;lt;include&amp;gt;&amp;gt;" style="text;html=1;strokeColor=none;fillColor=none;align=center;verticalAlign=middle;whiteSpace=wrap;rounded=0;rotation=-10;" parent="1" vertex="1">
          <mxGeometry x="508.9999999999999" y="934.9000000000001" width="72.65" height="23.15" as="geometry" />
        </mxCell>
        <mxCell id="F0JioWCo4Qzg_TsHQdJf-64" value="&amp;lt;&amp;lt;include&amp;gt;&amp;gt;" style="text;html=1;strokeColor=none;fillColor=none;align=center;verticalAlign=middle;whiteSpace=wrap;rounded=0;rotation=-30;" parent="1" vertex="1">
          <mxGeometry x="506.9999999999999" y="964.75" width="72.65" height="23.15" as="geometry" />
        </mxCell>
        <mxCell id="F0JioWCo4Qzg_TsHQdJf-65" value="공지사항" style="ellipse;whiteSpace=wrap;html=1;fontSize=11;fillColor=#f8cecc;strokeColor=#b85450;" parent="1" vertex="1">
          <mxGeometry x="81" y="1160" width="91.8" height="40" as="geometry" />
        </mxCell>
        <mxCell id="F0JioWCo4Qzg_TsHQdJf-66" value="글쓰기 페이지로 이동한다." style="ellipse;whiteSpace=wrap;html=1;fontSize=11;" parent="1" vertex="1">
          <mxGeometry x="340" y="1140" width="160" height="33.33" as="geometry" />
        </mxCell>
        <mxCell id="F0JioWCo4Qzg_TsHQdJf-67" value="상세 글보기로 이동한다." style="ellipse;whiteSpace=wrap;html=1;fontSize=11;" parent="1" vertex="1">
          <mxGeometry x="341.35" y="1089.9999999999998" width="160" height="33.33" as="geometry" />
        </mxCell>
        <mxCell id="F0JioWCo4Qzg_TsHQdJf-68" value="본인이 작성한 글을 수정한다." style="ellipse;whiteSpace=wrap;html=1;fontSize=11;" parent="1" vertex="1">
          <mxGeometry x="344.35" y="1198" width="160" height="33.33" as="geometry" />
        </mxCell>
        <mxCell id="F0JioWCo4Qzg_TsHQdJf-69" value="본인이 작성한 글을 삭제한다." style="ellipse;whiteSpace=wrap;html=1;fontSize=11;" parent="1" vertex="1">
          <mxGeometry x="344.35" y="1250" width="160" height="33.33" as="geometry" />
        </mxCell>
        <mxCell id="F0JioWCo4Qzg_TsHQdJf-70" value="" style="endArrow=classic;html=1;rounded=0;entryX=0;entryY=0.5;entryDx=0;entryDy=0;exitX=1;exitY=0.5;exitDx=0;exitDy=0;dashed=1;" parent="1" source="F0JioWCo4Qzg_TsHQdJf-65" target="F0JioWCo4Qzg_TsHQdJf-67" edge="1">
          <mxGeometry width="50" height="50" relative="1" as="geometry">
            <mxPoint x="226" y="1191" as="sourcePoint" />
            <mxPoint x="249.99999999999864" y="1132.335" as="targetPoint" />
          </mxGeometry>
        </mxCell>
        <mxCell id="F0JioWCo4Qzg_TsHQdJf-72" value="공지사항 관리" style="ellipse;whiteSpace=wrap;html=1;fontSize=11;fillColor=#e1d5e7;strokeColor=#9673a6;" parent="1" vertex="1">
          <mxGeometry x="600.35" y="1172.72" width="100" height="35.56" as="geometry" />
        </mxCell>
        <mxCell id="F0JioWCo4Qzg_TsHQdJf-73" value="" style="endArrow=classic;html=1;rounded=0;exitX=0;exitY=0.5;exitDx=0;exitDy=0;entryX=1;entryY=0.5;entryDx=0;entryDy=0;dashed=1;" parent="1" source="F0JioWCo4Qzg_TsHQdJf-72" target="F0JioWCo4Qzg_TsHQdJf-67" edge="1">
          <mxGeometry width="50" height="50" relative="1" as="geometry">
            <mxPoint x="305.35" y="1170" as="sourcePoint" />
            <mxPoint x="355.35" y="1120" as="targetPoint" />
          </mxGeometry>
        </mxCell>
        <mxCell id="F0JioWCo4Qzg_TsHQdJf-74" value="" style="endArrow=classic;html=1;rounded=0;entryX=1;entryY=0.5;entryDx=0;entryDy=0;exitX=0;exitY=0.5;exitDx=0;exitDy=0;dashed=1;" parent="1" source="F0JioWCo4Qzg_TsHQdJf-72" target="F0JioWCo4Qzg_TsHQdJf-66" edge="1">
          <mxGeometry width="50" height="50" relative="1" as="geometry">
            <mxPoint x="425.35" y="1188" as="sourcePoint" />
            <mxPoint x="355.35" y="1120" as="targetPoint" />
          </mxGeometry>
        </mxCell>
        <mxCell id="F0JioWCo4Qzg_TsHQdJf-75" value="" style="endArrow=classic;html=1;rounded=0;exitX=0;exitY=0.5;exitDx=0;exitDy=0;entryX=1;entryY=0.5;entryDx=0;entryDy=0;dashed=1;" parent="1" source="F0JioWCo4Qzg_TsHQdJf-72" target="F0JioWCo4Qzg_TsHQdJf-68" edge="1">
          <mxGeometry width="50" height="50" relative="1" as="geometry">
            <mxPoint x="305.35" y="1170" as="sourcePoint" />
            <mxPoint x="355.35" y="1120" as="targetPoint" />
          </mxGeometry>
        </mxCell>
        <mxCell id="F0JioWCo4Qzg_TsHQdJf-76" value="" style="endArrow=classic;html=1;rounded=0;exitX=0;exitY=0.5;exitDx=0;exitDy=0;entryX=1;entryY=0.5;entryDx=0;entryDy=0;dashed=1;" parent="1" source="F0JioWCo4Qzg_TsHQdJf-72" target="F0JioWCo4Qzg_TsHQdJf-69" edge="1">
          <mxGeometry width="50" height="50" relative="1" as="geometry">
            <mxPoint x="305.35" y="1170" as="sourcePoint" />
            <mxPoint x="355.35" y="1120" as="targetPoint" />
          </mxGeometry>
        </mxCell>
        <mxCell id="F0JioWCo4Qzg_TsHQdJf-77" value="&amp;lt;&amp;lt;include&amp;gt;&amp;gt;" style="text;html=1;strokeColor=none;fillColor=none;align=center;verticalAlign=middle;whiteSpace=wrap;rounded=0;rotation=36;" parent="1" vertex="1">
          <mxGeometry x="529.65" y="1127.75" width="60" height="30" as="geometry" />
        </mxCell>
        <mxCell id="F0JioWCo4Qzg_TsHQdJf-78" value="&amp;lt;&amp;lt;include&amp;gt;&amp;gt;" style="text;html=1;strokeColor=none;fillColor=none;align=center;verticalAlign=middle;whiteSpace=wrap;rounded=0;rotation=20;" parent="1" vertex="1">
          <mxGeometry x="508.9999999999999" y="1151.18" width="72.65" height="23.15" as="geometry" />
        </mxCell>
        <mxCell id="F0JioWCo4Qzg_TsHQdJf-79" value="&amp;lt;&amp;lt;include&amp;gt;&amp;gt;" style="text;html=1;strokeColor=none;fillColor=none;align=center;verticalAlign=middle;whiteSpace=wrap;rounded=0;rotation=-10;" parent="1" vertex="1">
          <mxGeometry x="503.3499999999999" y="1185.9" width="72.65" height="23.15" as="geometry" />
        </mxCell>
        <mxCell id="F0JioWCo4Qzg_TsHQdJf-80" value="&amp;lt;&amp;lt;include&amp;gt;&amp;gt;" style="text;html=1;strokeColor=none;fillColor=none;align=center;verticalAlign=middle;whiteSpace=wrap;rounded=0;rotation=-40;" parent="1" vertex="1">
          <mxGeometry x="523.9999999999999" y="1221" width="72.65" height="23.15" as="geometry" />
        </mxCell>
        <mxCell id="F0JioWCo4Qzg_TsHQdJf-97" value="QnA" style="ellipse;whiteSpace=wrap;html=1;fontSize=11;fillColor=#f8cecc;strokeColor=#b85450;" parent="1" vertex="1">
          <mxGeometry x="85" y="1407" width="98.69" height="43" as="geometry" />
        </mxCell>
        <mxCell id="F0JioWCo4Qzg_TsHQdJf-98" value="" style="endArrow=classic;html=1;rounded=0;entryX=0;entryY=0.5;entryDx=0;entryDy=0;" parent="1" target="F0JioWCo4Qzg_TsHQdJf-97" edge="1">
          <mxGeometry width="50" height="50" relative="1" as="geometry">
            <mxPoint x="-30" y="1080" as="sourcePoint" />
            <mxPoint x="65" y="1299.33" as="targetPoint" />
          </mxGeometry>
        </mxCell>
        <mxCell id="F0JioWCo4Qzg_TsHQdJf-99" value="글쓰기 페이지로 이동한다." style="ellipse;whiteSpace=wrap;html=1;fontSize=11;" parent="1" vertex="1">
          <mxGeometry x="340" y="1396" width="160" height="33.33" as="geometry" />
        </mxCell>
        <mxCell id="F0JioWCo4Qzg_TsHQdJf-100" value="상세 글보기로 이동한다." style="ellipse;whiteSpace=wrap;html=1;fontSize=11;" parent="1" vertex="1">
          <mxGeometry x="340" y="1347" width="160" height="33.33" as="geometry" />
        </mxCell>
        <mxCell id="F0JioWCo4Qzg_TsHQdJf-101" value="해당 글의 내용을 수정한다." style="ellipse;whiteSpace=wrap;html=1;fontSize=11;" parent="1" vertex="1">
          <mxGeometry x="340" y="1445" width="160" height="33.33" as="geometry" />
        </mxCell>
        <mxCell id="F0JioWCo4Qzg_TsHQdJf-102" value="본인이 작성한 글을 삭제한다." style="ellipse;whiteSpace=wrap;html=1;fontSize=11;" parent="1" vertex="1">
          <mxGeometry x="340" y="1497" width="160" height="33.33" as="geometry" />
        </mxCell>
        <mxCell id="F0JioWCo4Qzg_TsHQdJf-103" value="" style="endArrow=classic;html=1;rounded=0;entryX=0;entryY=0.5;entryDx=0;entryDy=0;exitX=1;exitY=0.5;exitDx=0;exitDy=0;dashed=1;" parent="1" source="F0JioWCo4Qzg_TsHQdJf-97" target="F0JioWCo4Qzg_TsHQdJf-100" edge="1">
          <mxGeometry width="50" height="50" relative="1" as="geometry">
            <mxPoint x="230" y="1438" as="sourcePoint" />
            <mxPoint x="460" y="1367" as="targetPoint" />
          </mxGeometry>
        </mxCell>
        <mxCell id="F0JioWCo4Qzg_TsHQdJf-104" value="" style="endArrow=classic;html=1;rounded=0;entryX=0;entryY=0.5;entryDx=0;entryDy=0;exitX=1;exitY=0.5;exitDx=0;exitDy=0;dashed=1;" parent="1" source="F0JioWCo4Qzg_TsHQdJf-97" target="F0JioWCo4Qzg_TsHQdJf-99" edge="1">
          <mxGeometry width="50" height="50" relative="1" as="geometry">
            <mxPoint x="300" y="1437" as="sourcePoint" />
            <mxPoint x="460" y="1367" as="targetPoint" />
          </mxGeometry>
        </mxCell>
        <mxCell id="F0JioWCo4Qzg_TsHQdJf-105" value="" style="endArrow=classic;html=1;rounded=0;exitX=1;exitY=0.5;exitDx=0;exitDy=0;entryX=0;entryY=0.5;entryDx=0;entryDy=0;dashed=1;" parent="1" source="F0JioWCo4Qzg_TsHQdJf-97" target="F0JioWCo4Qzg_TsHQdJf-101" edge="1">
          <mxGeometry width="50" height="50" relative="1" as="geometry">
            <mxPoint x="300" y="1437.5" as="sourcePoint" />
            <mxPoint x="460" y="1367" as="targetPoint" />
          </mxGeometry>
        </mxCell>
        <mxCell id="F0JioWCo4Qzg_TsHQdJf-106" value="" style="endArrow=classic;html=1;rounded=0;entryX=0;entryY=0.5;entryDx=0;entryDy=0;exitX=1;exitY=0.5;exitDx=0;exitDy=0;dashed=1;" parent="1" source="F0JioWCo4Qzg_TsHQdJf-97" target="F0JioWCo4Qzg_TsHQdJf-102" edge="1">
          <mxGeometry width="50" height="50" relative="1" as="geometry">
            <mxPoint x="300" y="1437" as="sourcePoint" />
            <mxPoint x="460" y="1367" as="targetPoint" />
          </mxGeometry>
        </mxCell>
        <mxCell id="F0JioWCo4Qzg_TsHQdJf-107" value="&amp;lt;&amp;lt;extend&amp;gt;&amp;gt;" style="text;html=1;strokeColor=none;fillColor=none;align=center;verticalAlign=middle;whiteSpace=wrap;rounded=0;rotation=-25;" parent="1" vertex="1">
          <mxGeometry x="237" y="1370" width="60" height="30" as="geometry" />
        </mxCell>
        <mxCell id="F0JioWCo4Qzg_TsHQdJf-108" value="QnA 관리" style="ellipse;whiteSpace=wrap;html=1;fontSize=11;fillColor=#e1d5e7;strokeColor=#9673a6;" parent="1" vertex="1">
          <mxGeometry x="630" y="1419.72" width="100" height="35.56" as="geometry" />
        </mxCell>
        <mxCell id="F0JioWCo4Qzg_TsHQdJf-109" value="" style="endArrow=classic;html=1;rounded=0;exitX=0;exitY=0.5;exitDx=0;exitDy=0;entryX=1;entryY=0.5;entryDx=0;entryDy=0;dashed=1;" parent="1" source="F0JioWCo4Qzg_TsHQdJf-108" target="F0JioWCo4Qzg_TsHQdJf-100" edge="1">
          <mxGeometry width="50" height="50" relative="1" as="geometry">
            <mxPoint x="335" y="1417" as="sourcePoint" />
            <mxPoint x="385" y="1367" as="targetPoint" />
          </mxGeometry>
        </mxCell>
        <mxCell id="F0JioWCo4Qzg_TsHQdJf-110" value="" style="endArrow=classic;html=1;rounded=0;entryX=1;entryY=0.5;entryDx=0;entryDy=0;exitX=0;exitY=0.5;exitDx=0;exitDy=0;dashed=1;" parent="1" source="F0JioWCo4Qzg_TsHQdJf-108" target="F0JioWCo4Qzg_TsHQdJf-99" edge="1">
          <mxGeometry width="50" height="50" relative="1" as="geometry">
            <mxPoint x="455" y="1435" as="sourcePoint" />
            <mxPoint x="385" y="1367" as="targetPoint" />
          </mxGeometry>
        </mxCell>
        <mxCell id="F0JioWCo4Qzg_TsHQdJf-111" value="" style="endArrow=classic;html=1;rounded=0;exitX=0;exitY=0.5;exitDx=0;exitDy=0;entryX=1;entryY=0.5;entryDx=0;entryDy=0;dashed=1;" parent="1" source="F0JioWCo4Qzg_TsHQdJf-108" target="F0JioWCo4Qzg_TsHQdJf-101" edge="1">
          <mxGeometry width="50" height="50" relative="1" as="geometry">
            <mxPoint x="335" y="1417" as="sourcePoint" />
            <mxPoint x="385" y="1367" as="targetPoint" />
          </mxGeometry>
        </mxCell>
        <mxCell id="F0JioWCo4Qzg_TsHQdJf-112" value="" style="endArrow=classic;html=1;rounded=0;exitX=0;exitY=0.5;exitDx=0;exitDy=0;entryX=1;entryY=0.5;entryDx=0;entryDy=0;dashed=1;" parent="1" source="F0JioWCo4Qzg_TsHQdJf-108" target="F0JioWCo4Qzg_TsHQdJf-102" edge="1">
          <mxGeometry width="50" height="50" relative="1" as="geometry">
            <mxPoint x="335" y="1417" as="sourcePoint" />
            <mxPoint x="385" y="1367" as="targetPoint" />
          </mxGeometry>
        </mxCell>
        <mxCell id="F0JioWCo4Qzg_TsHQdJf-113" value="&amp;lt;&amp;lt;include&amp;gt;&amp;gt;" style="text;html=1;strokeColor=none;fillColor=none;align=center;verticalAlign=middle;whiteSpace=wrap;rounded=0;rotation=36;" parent="1" vertex="1">
          <mxGeometry x="540" y="1377" width="60" height="30" as="geometry" />
        </mxCell>
        <mxCell id="F0JioWCo4Qzg_TsHQdJf-114" value="&amp;lt;&amp;lt;extend&amp;gt;&amp;gt;" style="text;html=1;strokeColor=none;fillColor=none;align=center;verticalAlign=middle;whiteSpace=wrap;rounded=0;rotation=-10;" parent="1" vertex="1">
          <mxGeometry x="260" y="1396" width="60" height="30" as="geometry" />
        </mxCell>
        <mxCell id="F0JioWCo4Qzg_TsHQdJf-115" value="&amp;lt;&amp;lt;extend&amp;gt;&amp;gt;" style="text;html=1;strokeColor=none;fillColor=none;align=center;verticalAlign=middle;whiteSpace=wrap;rounded=0;rotation=15;" parent="1" vertex="1">
          <mxGeometry x="260" y="1429.33" width="60" height="30" as="geometry" />
        </mxCell>
        <mxCell id="F0JioWCo4Qzg_TsHQdJf-116" value="&amp;lt;&amp;lt;extend&amp;gt;&amp;gt;" style="text;html=1;strokeColor=none;fillColor=none;align=center;verticalAlign=middle;whiteSpace=wrap;rounded=0;rotation=30;" parent="1" vertex="1">
          <mxGeometry x="250" y="1459.33" width="60" height="30" as="geometry" />
        </mxCell>
        <mxCell id="F0JioWCo4Qzg_TsHQdJf-117" value="&amp;lt;&amp;lt;include&amp;gt;&amp;gt;" style="text;html=1;strokeColor=none;fillColor=none;align=center;verticalAlign=middle;whiteSpace=wrap;rounded=0;rotation=15;" parent="1" vertex="1">
          <mxGeometry x="518.9999999999999" y="1404.75" width="72.65" height="23.15" as="geometry" />
        </mxCell>
        <mxCell id="F0JioWCo4Qzg_TsHQdJf-118" value="&amp;lt;&amp;lt;include&amp;gt;&amp;gt;" style="text;html=1;strokeColor=none;fillColor=none;align=center;verticalAlign=middle;whiteSpace=wrap;rounded=0;rotation=-10;" parent="1" vertex="1">
          <mxGeometry x="518.9999999999999" y="1430.9" width="72.65" height="23.15" as="geometry" />
        </mxCell>
        <mxCell id="F0JioWCo4Qzg_TsHQdJf-119" value="&amp;lt;&amp;lt;include&amp;gt;&amp;gt;" style="text;html=1;strokeColor=none;fillColor=none;align=center;verticalAlign=middle;whiteSpace=wrap;rounded=0;rotation=-30;" parent="1" vertex="1">
          <mxGeometry x="516.9999999999999" y="1462.75" width="72.65" height="23.15" as="geometry" />
        </mxCell>
        <mxCell id="F0JioWCo4Qzg_TsHQdJf-121" value="" style="endArrow=classic;html=1;rounded=0;entryX=0;entryY=0.5;entryDx=0;entryDy=0;" parent="1" target="F0JioWCo4Qzg_TsHQdJf-43" edge="1">
          <mxGeometry width="50" height="50" relative="1" as="geometry">
            <mxPoint x="-30" y="1050" as="sourcePoint" />
            <mxPoint x="1096" y="1030" as="targetPoint" />
          </mxGeometry>
        </mxCell>
        <mxCell id="F0JioWCo4Qzg_TsHQdJf-122" value="" style="endArrow=classic;html=1;rounded=0;entryX=0;entryY=0.5;entryDx=0;entryDy=0;" parent="1" target="F0JioWCo4Qzg_TsHQdJf-65" edge="1">
          <mxGeometry width="50" height="50" relative="1" as="geometry">
            <mxPoint x="-30" y="1060" as="sourcePoint" />
            <mxPoint x="1096" y="1030" as="targetPoint" />
          </mxGeometry>
        </mxCell>
        <mxCell id="F0JioWCo4Qzg_TsHQdJf-127" value="" style="endArrow=classic;html=1;rounded=0;entryX=1;entryY=0.5;entryDx=0;entryDy=0;" parent="1" target="F0JioWCo4Qzg_TsHQdJf-26" edge="1">
          <mxGeometry width="50" height="50" relative="1" as="geometry">
            <mxPoint x="870" y="1030" as="sourcePoint" />
            <mxPoint x="1096" y="840" as="targetPoint" />
          </mxGeometry>
        </mxCell>
        <mxCell id="F0JioWCo4Qzg_TsHQdJf-128" value="" style="endArrow=classic;html=1;rounded=0;entryX=1;entryY=0.5;entryDx=0;entryDy=0;" parent="1" target="F0JioWCo4Qzg_TsHQdJf-53" edge="1">
          <mxGeometry width="50" height="50" relative="1" as="geometry">
            <mxPoint x="860" y="1040" as="sourcePoint" />
            <mxPoint x="1096" y="840" as="targetPoint" />
          </mxGeometry>
        </mxCell>
        <mxCell id="F0JioWCo4Qzg_TsHQdJf-129" value="" style="endArrow=classic;html=1;rounded=0;entryX=1;entryY=0.5;entryDx=0;entryDy=0;" parent="1" target="F0JioWCo4Qzg_TsHQdJf-72" edge="1">
          <mxGeometry width="50" height="50" relative="1" as="geometry">
            <mxPoint x="860" y="1060" as="sourcePoint" />
            <mxPoint x="916" y="1090" as="targetPoint" />
          </mxGeometry>
        </mxCell>
        <mxCell id="F0JioWCo4Qzg_TsHQdJf-130" value="" style="endArrow=classic;html=1;rounded=0;entryX=1;entryY=0.5;entryDx=0;entryDy=0;" parent="1" target="F0JioWCo4Qzg_TsHQdJf-108" edge="1">
          <mxGeometry width="50" height="50" relative="1" as="geometry">
            <mxPoint x="870" y="1080" as="sourcePoint" />
            <mxPoint x="1016" y="1160" as="targetPoint" />
          </mxGeometry>
        </mxCell>
        <mxCell id="F0JioWCo4Qzg_TsHQdJf-133" style="edgeStyle=orthogonalEdgeStyle;rounded=0;orthogonalLoop=1;jettySize=auto;html=1;exitX=0.5;exitY=1;exitDx=0;exitDy=0;" parent="1" source="F0JioWCo4Qzg_TsHQdJf-131" target="F0JioWCo4Qzg_TsHQdJf-132" edge="1">
          <mxGeometry relative="1" as="geometry" />
        </mxCell>
        <mxCell id="F0JioWCo4Qzg_TsHQdJf-131" value="마이페이지로 이동한다." style="ellipse;whiteSpace=wrap;html=1;fontSize=11;" parent="1" vertex="1">
          <mxGeometry x="237" y="290" width="160" height="35.56" as="geometry" />
        </mxCell>
        <mxCell id="F0JioWCo4Qzg_TsHQdJf-132" value="회원정보를 수정한다." style="ellipse;whiteSpace=wrap;html=1;fontSize=11;" parent="1" vertex="1">
          <mxGeometry x="237" y="356" width="160" height="35.56" as="geometry" />
        </mxCell>
        <mxCell id="F0JioWCo4Qzg_TsHQdJf-134" value="" style="endArrow=classic;html=1;rounded=0;entryX=1;entryY=0.5;entryDx=0;entryDy=0;exitX=0;exitY=0.5;exitDx=0;exitDy=0;dashed=1;" parent="1" source="-Qgl4ysdJtrphELewiQ6-37" target="F0JioWCo4Qzg_TsHQdJf-132" edge="1">
          <mxGeometry width="50" height="50" relative="1" as="geometry">
            <mxPoint x="902" y="241.88" as="sourcePoint" />
            <mxPoint x="677" y="276.88" as="targetPoint" />
          </mxGeometry>
        </mxCell>
        <mxCell id="F0JioWCo4Qzg_TsHQdJf-135" value="" style="endArrow=classic;html=1;rounded=0;entryX=1;entryY=0.5;entryDx=0;entryDy=0;exitX=0;exitY=0.5;exitDx=0;exitDy=0;dashed=1;" parent="1" source="-Qgl4ysdJtrphELewiQ6-37" target="F0JioWCo4Qzg_TsHQdJf-131" edge="1">
          <mxGeometry width="50" height="50" relative="1" as="geometry">
            <mxPoint x="897" y="236.88" as="sourcePoint" />
            <mxPoint x="497" y="316.88" as="targetPoint" />
          </mxGeometry>
        </mxCell>
        <mxCell id="F0JioWCo4Qzg_TsHQdJf-136" value="&amp;lt;&amp;lt;include&amp;gt;&amp;gt;" style="text;html=1;strokeColor=none;fillColor=none;align=center;verticalAlign=middle;whiteSpace=wrap;rounded=0;rotation=5;" parent="1" vertex="1">
          <mxGeometry x="489" y="295.56" width="60" height="30" as="geometry" />
        </mxCell>
        <mxCell id="F0JioWCo4Qzg_TsHQdJf-137" value="&amp;lt;&amp;lt;include&amp;gt;&amp;gt;" style="text;html=1;strokeColor=none;fillColor=none;align=center;verticalAlign=middle;whiteSpace=wrap;rounded=0;rotation=-10;" parent="1" vertex="1">
          <mxGeometry x="488" y="351.56" width="60" height="30" as="geometry" />
        </mxCell>
        <mxCell id="F0JioWCo4Qzg_TsHQdJf-143" value="회원가입" style="ellipse;whiteSpace=wrap;html=1;fontSize=11;fillColor=#f8cecc;strokeColor=#b85450;" parent="1" vertex="1">
          <mxGeometry x="82" y="-12.440000000000005" width="110" height="35.56" as="geometry" />
        </mxCell>
        <mxCell id="F0JioWCo4Qzg_TsHQdJf-144" value="" style="endArrow=classic;html=1;rounded=0;exitX=1;exitY=0.5;exitDx=0;exitDy=0;" parent="1" source="F0JioWCo4Qzg_TsHQdJf-143" target="-Qgl4ysdJtrphELewiQ6-4" edge="1">
          <mxGeometry width="50" height="50" relative="1" as="geometry">
            <mxPoint x="307" y="30" as="sourcePoint" />
            <mxPoint x="217" y="5" as="targetPoint" />
          </mxGeometry>
        </mxCell>
        <mxCell id="F0JioWCo4Qzg_TsHQdJf-145" value="로그인" style="ellipse;whiteSpace=wrap;html=1;fontSize=11;fillColor=#f8cecc;strokeColor=#b85450;" parent="1" vertex="1">
          <mxGeometry x="87" y="150" width="100" height="35.56" as="geometry" />
        </mxCell>
        <mxCell id="F0JioWCo4Qzg_TsHQdJf-147" value="" style="endArrow=classic;html=1;rounded=0;entryX=0;entryY=0.5;entryDx=0;entryDy=0;" parent="1" target="F0JioWCo4Qzg_TsHQdJf-145" edge="1">
          <mxGeometry width="50" height="50" relative="1" as="geometry">
            <mxPoint x="-30" y="230" as="sourcePoint" />
            <mxPoint x="40" y="238.56" as="targetPoint" />
          </mxGeometry>
        </mxCell>
        <mxCell id="F0JioWCo4Qzg_TsHQdJf-148" value="마이페이지" style="ellipse;whiteSpace=wrap;html=1;fontSize=11;fillColor=#f8cecc;strokeColor=#b85450;" parent="1" vertex="1">
          <mxGeometry x="82" y="291.32" width="100" height="35.56" as="geometry" />
        </mxCell>
        <mxCell id="F0JioWCo4Qzg_TsHQdJf-149" value="" style="endArrow=classic;html=1;rounded=0;entryX=0;entryY=0.5;entryDx=0;entryDy=0;" parent="1" target="F0JioWCo4Qzg_TsHQdJf-148" edge="1">
          <mxGeometry width="50" height="50" relative="1" as="geometry">
            <mxPoint x="-30" y="250" as="sourcePoint" />
            <mxPoint x="40" y="378.56" as="targetPoint" />
          </mxGeometry>
        </mxCell>
        <mxCell id="F0JioWCo4Qzg_TsHQdJf-150" value="" style="endArrow=classic;html=1;rounded=0;entryX=0;entryY=0.5;entryDx=0;entryDy=0;exitX=1;exitY=0.5;exitDx=0;exitDy=0;" parent="1" source="F0JioWCo4Qzg_TsHQdJf-148" target="F0JioWCo4Qzg_TsHQdJf-131" edge="1">
          <mxGeometry width="50" height="50" relative="1" as="geometry">
            <mxPoint x="187" y="408.56" as="sourcePoint" />
            <mxPoint x="237" y="358.56" as="targetPoint" />
          </mxGeometry>
        </mxCell>
        <mxCell id="F0JioWCo4Qzg_TsHQdJf-173" value="&amp;lt;&amp;lt;extend&amp;gt;&amp;gt;" style="text;html=1;strokeColor=none;fillColor=none;align=center;verticalAlign=middle;whiteSpace=wrap;rounded=0;rotation=-30;" parent="1" vertex="1">
          <mxGeometry x="220" y="1120" width="60" height="30" as="geometry" />
        </mxCell>
        <mxCell id="MUWnG2C1bXV3p7cmIXM5-1" value="" style="rounded=0;whiteSpace=wrap;html=1;" parent="1" vertex="1">
          <mxGeometry x="12" y="1641" width="793" height="232" as="geometry" />
        </mxCell>
        <object label="User" id="MUWnG2C1bXV3p7cmIXM5-2">
          <mxCell style="shape=umlActor;verticalLabelPosition=bottom;verticalAlign=top;html=1;outlineConnect=0;" parent="1" vertex="1">
            <mxGeometry x="-53" y="1673" width="30" height="60" as="geometry" />
          </mxCell>
        </object>
        <mxCell id="MUWnG2C1bXV3p7cmIXM5-3" style="edgeStyle=orthogonalEdgeStyle;rounded=0;orthogonalLoop=1;jettySize=auto;html=1;exitX=1;exitY=0.5;exitDx=0;exitDy=0;dashed=1;" parent="1" source="MUWnG2C1bXV3p7cmIXM5-4" target="MUWnG2C1bXV3p7cmIXM5-8" edge="1">
          <mxGeometry relative="1" as="geometry" />
        </mxCell>
        <mxCell id="MUWnG2C1bXV3p7cmIXM5-4" value="온라인 강의" style="ellipse;whiteSpace=wrap;html=1;fontSize=11;fillColor=#f8cecc;strokeColor=#b85450;" parent="1" vertex="1">
          <mxGeometry x="67" y="1683" width="90" height="41" as="geometry" />
        </mxCell>
        <mxCell id="MUWnG2C1bXV3p7cmIXM5-7" value="" style="endArrow=classic;html=1;rounded=0;entryX=0;entryY=0.5;entryDx=0;entryDy=0;" parent="1" target="MUWnG2C1bXV3p7cmIXM5-4" edge="1">
          <mxGeometry width="50" height="50" relative="1" as="geometry">
            <mxPoint x="-10" y="1704" as="sourcePoint" />
            <mxPoint x="57" y="1723" as="targetPoint" />
          </mxGeometry>
        </mxCell>
        <mxCell id="MUWnG2C1bXV3p7cmIXM5-8" value="강의 목록 페이지로 이동한다." style="ellipse;whiteSpace=wrap;html=1;fontSize=11;" parent="1" vertex="1">
          <mxGeometry x="335" y="1686.83" width="160" height="33.33" as="geometry" />
        </mxCell>
        <mxCell id="MUWnG2C1bXV3p7cmIXM5-9" value="강의 플레이어로 이동한다." style="ellipse;whiteSpace=wrap;html=1;fontSize=11;" parent="1" vertex="1">
          <mxGeometry x="329" y="1808" width="172" height="31.85" as="geometry" />
        </mxCell>
        <mxCell id="MUWnG2C1bXV3p7cmIXM5-11" value="&amp;lt;&amp;lt;extend&amp;gt;&amp;gt;" style="text;html=1;strokeColor=none;fillColor=none;align=center;verticalAlign=middle;whiteSpace=wrap;rounded=0;rotation=0;" parent="1" vertex="1">
          <mxGeometry x="207" y="1678" width="60" height="30" as="geometry" />
        </mxCell>
        <mxCell id="MUWnG2C1bXV3p7cmIXM5-18" value="&lt;span style=&quot;font-size: 15px;&quot;&gt;온라인 강의&lt;/span&gt;" style="text;html=1;align=center;verticalAlign=middle;resizable=0;points=[];autosize=1;strokeColor=none;fillColor=none;fontSize=14;fontStyle=1" parent="1" vertex="1">
          <mxGeometry x="346" y="1604" width="100" height="30" as="geometry" />
        </mxCell>
        <mxCell id="MUWnG2C1bXV3p7cmIXM5-19" value="강의 상세 보기 페이지로 이동한다." style="ellipse;whiteSpace=wrap;html=1;fontSize=11;" parent="1" vertex="1">
          <mxGeometry x="324" y="1743" width="182" height="33.33" as="geometry" />
        </mxCell>
        <mxCell id="MUWnG2C1bXV3p7cmIXM5-20" value="Member" style="shape=umlActor;verticalLabelPosition=bottom;verticalAlign=top;html=1;outlineConnect=0;fillColor=#f8cecc;strokeColor=#b85450;" parent="1" vertex="1">
          <mxGeometry x="-53" y="1793" width="30" height="60" as="geometry" />
        </mxCell>
        <mxCell id="MUWnG2C1bXV3p7cmIXM5-21" value="동영상 플레이어" style="ellipse;whiteSpace=wrap;html=1;fontSize=11;fillColor=#f8cecc;strokeColor=#b85450;" parent="1" vertex="1">
          <mxGeometry x="67" y="1803" width="90" height="41" as="geometry" />
        </mxCell>
        <mxCell id="MUWnG2C1bXV3p7cmIXM5-22" value="" style="endArrow=classic;html=1;rounded=0;entryX=0;entryY=0.5;entryDx=0;entryDy=0;" parent="1" edge="1">
          <mxGeometry width="50" height="50" relative="1" as="geometry">
            <mxPoint x="-10" y="1823" as="sourcePoint" />
            <mxPoint x="67" y="1823" as="targetPoint" />
          </mxGeometry>
        </mxCell>
        <mxCell id="MUWnG2C1bXV3p7cmIXM5-23" style="edgeStyle=orthogonalEdgeStyle;rounded=0;orthogonalLoop=1;jettySize=auto;html=1;exitX=1;exitY=0.5;exitDx=0;exitDy=0;dashed=1;entryX=0;entryY=0.5;entryDx=0;entryDy=0;" parent="1" edge="1" target="MUWnG2C1bXV3p7cmIXM5-9">
          <mxGeometry relative="1" as="geometry">
            <mxPoint x="159" y="1824" as="sourcePoint" />
            <mxPoint x="272" y="1824" as="targetPoint" />
          </mxGeometry>
        </mxCell>
        <mxCell id="MUWnG2C1bXV3p7cmIXM5-24" value="&amp;lt;&amp;lt;extend&amp;gt;&amp;gt;" style="text;html=1;strokeColor=none;fillColor=none;align=center;verticalAlign=middle;whiteSpace=wrap;rounded=0;rotation=0;" parent="1" vertex="1">
          <mxGeometry x="204" y="1798" width="60" height="30" as="geometry" />
        </mxCell>
        <mxCell id="MUWnG2C1bXV3p7cmIXM5-25" value="" style="endArrow=classic;html=1;rounded=0;exitX=0.5;exitY=1;exitDx=0;exitDy=0;entryX=0.5;entryY=0;entryDx=0;entryDy=0;" parent="1" source="MUWnG2C1bXV3p7cmIXM5-8" target="MUWnG2C1bXV3p7cmIXM5-19" edge="1">
          <mxGeometry width="50" height="50" relative="1" as="geometry">
            <mxPoint x="410" y="1933" as="sourcePoint" />
            <mxPoint x="460" y="1883" as="targetPoint" />
          </mxGeometry>
        </mxCell>
        <mxCell id="MUWnG2C1bXV3p7cmIXM5-26" value="" style="endArrow=classic;html=1;rounded=0;exitX=0.5;exitY=1;exitDx=0;exitDy=0;entryX=0.5;entryY=0;entryDx=0;entryDy=0;" parent="1" source="MUWnG2C1bXV3p7cmIXM5-19" target="MUWnG2C1bXV3p7cmIXM5-9" edge="1">
          <mxGeometry width="50" height="50" relative="1" as="geometry">
            <mxPoint x="350" y="1933" as="sourcePoint" />
            <mxPoint x="400" y="1883" as="targetPoint" />
          </mxGeometry>
        </mxCell>
      </root>
    </mxGraphModel>
  </diagram>
</mxfile>
